<svg width="24" height="24" viewBox="0 0 24 24" fill="none" xmlns="http://www.w3.org/2000/svg">
<path d="M2.42013 12.7132C3.54554 14.4952 6.89541 19 12.0004 19C17.1054 19 20.4553 14.4952 21.5807 12.7132C21.7169 12.4975 21.7849 12.3897 21.8231 12.2234C21.8517 12.0984 21.8517 11.9014 21.8231 11.7765C21.7849 11.6102 21.7165 11.5019 21.5796 11.2853C20.4542 9.50331 17.1044 5 11.9994 5C6.89444 5 3.54457 9.50331 2.41916 11.2853C2.28295 11.5009 2.21485 11.6088 2.17673 11.7751C2.14811 11.9 2.14812 12.097 2.17676 12.222C2.21489 12.3883 2.28329 12.4966 2.42013 12.7132Z" stroke="#EDEDED" stroke-width="2" stroke-linecap="round" stroke-linejoin="round"/>
<path d="M12.0004 15C13.6573 15 15.0004 13.6569 15.0004 12C15.0004 10.3431 13.6573 9 12.0004 9C10.3436 9 9.00042 10.3431 9.00042 12C9.00042 13.6569 10.3436 15 12.0004 15Z" stroke="#EDEDED" stroke-width="2" stroke-linecap="round" stroke-linejoin="round"/>
</svg>
